# xmcd
# Track frame offsets:
# 150
# 14972
# 32601
# 48289
# 60684
# 69329
# 79105
# 91920
# 102383
# 112721
# 122024
# 133329
# 141887
# 155957
# 165806
# 179958
#
# Disc length: 2549 seconds
# Revision: 0
# Processed by: cddbd v1.5.2PL0 Copyright (c) Steve Scherf et al.
# Submitted via: VisiTrax 2.11.2.271 - For more info visit www.synapsa.com
#
DISCID=de09f310
DTITLE=Hoyt Axton - Famous Country Music Makers
DYEAR=2004
DGENRE=Country
TTITLE0=Greenback Dollar
TTITLE1=Five Hundred Miles
TTITLE2=The Ox Driver's Song
TTITLE3=Thunder 'N Lightnin'
TTITLE4=Grizzly Bear
TTITLE5=Never Gonna Work
TTITLE6=The ABC Song
TTITLE7=Young Man
TTITLE8=There's A Tiger In The Closet
TTITLE9=I'll Be There
TTITLE10=Red White And Blue
TTITLE11=Big Red
TTITLE12=Lonesome Road
TTITLE13=We'll Sing In The Sunshine
TTITLE14=Voodoo Blues
TTITLE15=This Little Light
EXTD=
EXTT0=
EXTT1=
EXTT2=
EXTT3=
EXTT4=
EXTT5=
EXTT6=
EXTT7=
EXTT8=
EXTT9=
EXTT10=
EXTT11=
EXTT12=
EXTT13=
EXTT14=
EXTT15=
PLAYORDER=
